# xmcd
#
# Track frame offsets: 
#        182
#        22140
#        47220
#        71597
#        94630
#        115415
#        134272
#        153760
#        173165
#        198187
#        219102
#
# Disc length: 3191 seconds
#
# Revision: 1
# Processed by: cddbd v1.5.2PL0 Copyright (c) Steve Scherf et al.
# Submitted via: ExactAudioCopyFreeDBPlugin 1.0
#
DISCID=910c750b
DTITLE=Whitney Houston - Whitney
DYEAR=1987
DGENRE=R&B
TTITLE0=I Wanna Dance with Somebody (Who Loves Me)
TTITLE1=Just the Lonely Talking Again
TTITLE2=Love Will Save the Day
TTITLE3=Didn't We Almost Have It All
TTITLE4=So Emotional
TTITLE5=Where You Are
TTITLE6=Love Is a Contact Sport
TTITLE7=You're Still My Man
TTITLE8=For the Love of You
TTITLE9=Where Do Broken Hearts Go
TTITLE10=I Know Him So Well (Duet With Cissy Houston)
EXTD=
EXTT0=
EXTT1=
EXTT2=
EXTT3=
EXTT4=
EXTT5=
EXTT6=
EXTT7=
EXTT8=
EXTT9=
EXTT10=
PLAYORDER=
